<mxfile host="app.diagrams.net" modified="2024-09-26T05:25:50.317Z" agent="Mozilla/5.0 (Windows NT 10.0; Win64; x64) AppleWebKit/537.36 (KHTML, like Gecko) Chrome/128.0.0.0 Safari/537.36" version="24.5.4" etag="3n5Gyuaz7O0JoEQwEMPu" type="github">
  <diagram name="第 1 页" id="quvkMajcy-c9vJRq_4t7">
    <mxGraphModel>
      <root>
        <mxCell id="0" />
        <mxCell id="1" parent="0" />
      </root>
    </mxGraphModel>
  </diagram>
</mxfile>
